<svg xmlns="http://www.w3.org/2000/svg" width="127" height="62" viewBox="0 0 127 62" fill="none"><g clip-path="url(#clip0_67_173)"><path d="M3.00686 57.1588C3.32577 58.6186 4.64697 59.4169 6.49778 59.4169C8.04677 59.4169 9.36797 58.9607 10.2393 58.1168H10.3532V60.9907C9.46478 61.6294 8.02969 61.9943 6.3611 61.9943C2.57405 61.9943 0 59.7134 0 56.4004C0 53.0875 2.32348 50.8066 5.58661 50.8066C8.84974 50.8066 10.991 52.7909 10.991 55.9443V57.1531H3.00686V57.1588ZM3.00686 55.3569H8.29734C8.09233 54.0568 7.09004 53.3954 5.67773 53.3954C4.40209 53.3954 3.30869 54.1025 3.01256 55.3569H3.00686Z" fill="#081339"></path><path d="M23.1893 55.4026V61.7719H20.2052V55.7675C20.2052 54.2849 19.4763 53.4638 18.2234 53.4638C16.8339 53.4638 16.0138 54.399 16.0138 56.064V61.7719H13.0297V51.0404H15.5127L15.6266 52.5686H15.6721C16.3099 51.4509 17.4717 50.8123 19.0264 50.8123C21.646 50.8123 23.2007 52.5001 23.2007 55.4026H23.1893Z" fill="#081339"></path><path d="M33.8784 61.7719L33.7873 60.335H33.7418C33.0356 61.3842 31.8511 62 30.2508 62C27.2212 62 25.0059 59.6507 25.0059 56.4062C25.0059 53.1616 27.2155 50.8123 30.2508 50.8123C31.572 50.8123 32.5971 51.2229 33.326 51.9527H33.3716V45.7887H36.3557V61.7662H33.8727L33.8784 61.7719ZM33.4684 56.4062C33.4684 54.6727 32.3522 53.4581 30.7577 53.4581C29.1631 53.4581 28.0242 54.667 28.0242 56.4062C28.0242 58.1453 29.1404 59.3485 30.7577 59.3485C32.375 59.3485 33.4684 58.1396 33.4684 56.4062Z" fill="#081339"></path><path d="M49.8638 56.4061C49.8638 59.6735 47.4947 62 44.1405 62C40.7862 62 38.3944 59.6735 38.3944 56.4061C38.3944 53.1388 40.7635 50.8123 44.1405 50.8123C47.5175 50.8123 49.8638 53.116 49.8638 56.4061ZM41.407 56.4061C41.407 58.1396 42.5232 59.3485 44.1405 59.3485C45.7578 59.3485 46.8512 58.1396 46.8512 56.4061C46.8512 54.6727 45.735 53.4581 44.1405 53.4581C42.5459 53.4581 41.407 54.667 41.407 56.4061Z" fill="#081339"></path><path d="M64.0666 61.7719H61.2192L59.0779 55.2885H59.0324L56.8684 61.7719H54.021L50.4161 51.0404H53.5825L55.587 57.9571H55.6326L57.9333 51.0404H60.2796L62.5575 57.9571H62.603L64.6076 51.0404H67.6373L64.0552 61.7719H64.0666Z" fill="#081339"></path><path d="M85.7468 55.3797V61.7719H82.7627V55.7219C82.7627 54.2393 82.1249 53.4638 80.9632 53.4638C79.642 53.4638 78.9586 54.3534 78.9586 56.2465V61.7719H75.9745V55.7219C75.9745 54.2393 75.3367 53.4638 74.1522 53.4638C72.831 53.4638 72.1476 54.3533 72.1476 56.0184V61.7719H69.1635V51.0404H71.6465L71.7604 52.4773H71.8059C72.4209 51.4053 73.4916 50.8123 74.9494 50.8123C76.4073 50.8123 77.5463 51.4281 78.2126 52.5686H78.2581C78.9187 51.3825 80.0349 50.8123 81.7718 50.8123C84.3231 50.8123 85.7639 52.4545 85.7639 55.3797H85.7468Z" fill="#081339"></path><path d="M90.5817 57.1588C90.9006 58.6186 92.2218 59.4169 94.0726 59.4169C95.6216 59.4169 96.9428 58.9607 97.8141 58.1168H97.928V60.9907C97.0396 61.6294 95.6045 61.9943 93.9359 61.9943C90.1489 61.9943 87.5748 59.7134 87.5748 56.4004C87.5748 53.0875 89.8983 50.8066 93.1614 50.8066C96.4246 50.8066 98.5658 52.7909 98.5658 55.9443V57.1531H90.5874L90.5817 57.1588ZM90.5817 55.3569H95.8722C95.6672 54.0568 94.6649 53.3954 93.2526 53.3954C91.9769 53.3954 90.8835 54.1025 90.5874 55.3569H90.5817Z" fill="#081339"></path><path d="M110.758 55.4026V61.7719H107.774V55.7675C107.774 54.2849 107.045 53.4638 105.793 53.4638C104.403 53.4638 103.583 54.399 103.583 56.064V61.7719H100.599V51.0404H103.082L103.196 52.5686H103.241C103.879 51.4509 105.041 50.8123 106.596 50.8123C109.215 50.8123 110.77 52.5001 110.77 55.4026H110.758Z" fill="#081339"></path><path d="M120.041 61.6351C119.517 61.886 118.856 62 117.945 62C115.348 62 113.953 60.5859 113.953 57.8659V53.5722H112.176V51.0404H114.044L114.432 48.0296H116.937V51.0404H120.012V53.5722H116.937V57.7519C116.937 58.7783 117.484 59.3485 118.418 59.3485C118.965 59.3485 119.466 59.2116 119.921 58.7327H120.035V61.6294L120.041 61.6351Z" fill="#081339"></path><path d="M64.7386 7.70938H61.0427V11.5698H64.7386V7.70938Z" fill="#081339"></path><path d="M68.7478 0H64.8981V3.86039H68.7478V0Z" fill="#081339"></path><path d="M43.7077 31.9323C42.9674 31.9323 42.3466 32.0407 41.8398 32.2516V37.606C42.3865 37.988 43.0129 38.1762 43.7248 38.1762C45.2111 38.1762 45.9571 37.4406 45.9571 35.9752V34.2303C45.9571 32.6964 45.2054 31.9323 43.7077 31.9323Z" fill="#081339"></path><path d="M6.28135 19.416H3.51367V23.5672H6.18454C6.98751 23.5672 7.60824 23.3961 8.04105 23.054C8.47955 22.7119 8.69595 22.1987 8.69595 21.5087C8.69595 20.8643 8.49094 20.3568 8.08661 19.9805C7.68227 19.6042 7.07862 19.416 6.27566 19.416H6.28135Z" fill="#081339"></path><path d="M17.1471 22.364C17.1471 22.8316 17.3407 23.1851 17.7223 23.436C18.1095 23.6869 18.6164 23.8067 19.2485 23.8067C19.8806 23.8067 20.5127 23.7097 21.1449 23.5216V21.1437C20.4729 21.0183 19.835 20.9556 19.2485 20.9556C17.8476 20.9556 17.1471 21.4231 17.1471 22.364Z" fill="#081339"></path><path d="M7.70505 17.7509C8.05244 17.4544 8.22898 17.0154 8.22898 16.4337C8.22898 15.8863 8.05244 15.453 7.70505 15.145C7.35767 14.8314 6.85083 14.6775 6.18454 14.6775H3.51367V18.1957H6.28135C6.885 18.1957 7.35767 18.0475 7.70505 17.7509Z" fill="#081339"></path><path d="M57.193 7.70937H61.0427V0H57.193V3.80337H0.0113525V42.641H64.7386V15.4244H61.0427V11.5698H57.193V7.70937ZM33.5652 13.634C33.5652 13.5199 33.6278 13.4572 33.7531 13.4572H34.6871C34.801 13.4572 34.8636 13.5142 34.8636 13.634V22.0618C34.8636 22.6605 34.9661 23.0996 35.1711 23.3676C35.3761 23.6356 35.6837 23.7725 36.0937 23.7725C36.3158 23.7725 36.555 23.7554 36.8055 23.7268C36.9308 23.7268 36.9935 23.7839 36.9935 23.9036V24.7133C36.9935 24.8274 36.9422 24.8958 36.834 24.9186C36.5721 24.9471 36.2759 24.9642 35.9456 24.9642C35.1882 24.9642 34.5959 24.7133 34.1802 24.2115C33.7645 23.7097 33.5538 22.9913 33.5538 22.0504V13.6397L33.5652 13.634ZM23.3772 23.6926L23.8043 22.9627C23.8669 22.8601 23.9523 22.843 24.0549 22.9171C24.8464 23.5102 25.6893 23.801 26.5833 23.801C27.1301 23.801 27.5799 23.6926 27.9273 23.4702C28.2747 23.2479 28.4512 22.9399 28.4512 22.5351C28.4512 22.2614 28.3487 22.0333 28.138 21.8451C27.9273 21.6626 27.7109 21.5372 27.5002 21.4745C27.2838 21.4118 26.982 21.3433 26.589 21.2692C26.2815 21.2065 26.0253 21.1495 25.8202 21.0924C25.6152 21.0411 25.3533 20.9442 25.0287 20.8073C24.7041 20.6705 24.4478 20.5222 24.2428 20.3568C24.0378 20.1915 23.8669 19.9691 23.7189 19.6897C23.5708 19.4103 23.4968 19.0967 23.4968 18.7488C23.4968 17.9904 23.7986 17.4088 24.4079 17.0154C25.0116 16.6219 25.7519 16.4223 26.6175 16.4223C27.5742 16.4223 28.4968 16.6732 29.3681 17.1693C29.482 17.2206 29.5048 17.3005 29.4308 17.4088L29.0036 18.1216C28.9524 18.2356 28.8727 18.2584 28.7645 18.1843C28.0355 17.7909 27.3009 17.597 26.5492 17.597C26.0025 17.597 25.5697 17.6996 25.2508 17.9049C24.9319 18.1102 24.7781 18.3953 24.7781 18.7545C24.7781 19.1423 24.9489 19.4274 25.2906 19.6099C25.6323 19.7866 26.1448 19.9463 26.8339 20.0831C27.1699 20.1459 27.4376 20.2029 27.6426 20.2599C27.8419 20.3112 28.0982 20.4025 28.4 20.5279C28.7075 20.6534 28.941 20.7959 29.1118 20.9499C29.2827 21.1038 29.4308 21.3091 29.5617 21.5771C29.6927 21.8394 29.7611 22.1416 29.7611 22.4781C29.7611 23.2593 29.4649 23.8694 28.8727 24.3085C28.2804 24.7475 27.5059 24.9642 26.5492 24.9642C25.376 24.9642 24.3339 24.6278 23.417 23.9492C23.3316 23.8979 23.3145 23.8124 23.3715 23.6983L23.3772 23.6926ZM11.2757 17.2149C11.2757 17.1123 11.3156 17.0439 11.401 17.0097C12.2153 16.6162 13.1151 16.4223 14.106 16.4223C14.5787 16.4223 15.1254 16.4622 15.7347 16.5478C15.8372 16.5592 15.8942 16.6276 15.8942 16.7531V17.5286C15.8942 17.6654 15.8315 17.7167 15.7063 17.6882C15.188 17.6141 14.7154 17.5799 14.2826 17.5799C13.6618 17.5799 13.0923 17.6825 12.5741 17.8992V24.6164C12.5741 24.7304 12.5115 24.7932 12.3862 24.7932H11.4522C11.3383 24.7932 11.2757 24.7361 11.2757 24.6164V17.2206V17.2149ZM8.50801 38.5126C7.72782 39.0544 6.73693 39.3281 5.53532 39.3281C4.77791 39.3281 4.08884 39.2083 3.4738 38.9631C2.85876 38.7179 2.22663 38.3416 1.58312 37.8227C1.4977 37.7486 1.48631 37.663 1.54895 37.5718L2.08996 36.8248C2.16399 36.7164 2.24372 36.705 2.32914 36.7792C3.42824 37.6117 4.51025 38.0337 5.58657 38.0451C6.36676 38.0451 7.01597 37.8797 7.53989 37.5547C8.06382 37.2296 8.32578 36.745 8.32578 36.112C8.32578 35.4791 8.0866 35.0457 7.61393 34.7549C7.14126 34.4641 6.38954 34.2075 5.37017 33.9851C4.84055 33.8711 4.37358 33.7342 3.96355 33.5745C3.55353 33.4149 3.15489 33.2096 2.77903 32.9587C2.39748 32.7078 2.10704 32.3828 1.90203 31.995C1.69702 31.6073 1.59451 31.1568 1.59451 30.6493C1.59451 29.6571 1.97606 28.9101 2.73347 28.4083C3.49088 27.9066 4.459 27.6557 5.62644 27.6557C6.91347 27.6557 8.14355 28.0776 9.31098 28.9215C9.41918 28.9843 9.43057 29.0641 9.35654 29.161L8.83262 29.908C8.76997 30.005 8.68455 30.0164 8.58204 29.9422C7.63101 29.2865 6.61164 28.9444 5.51254 28.9101C4.74374 28.9101 4.12301 29.0641 3.65603 29.3777C3.18906 29.6913 2.94988 30.1247 2.94988 30.6835C2.94988 31.2423 3.17767 31.6643 3.62756 31.9494C4.08314 32.2345 4.77791 32.4797 5.71755 32.6964C6.19022 32.799 6.60025 32.9074 6.94194 33.01C7.28363 33.1184 7.6424 33.2609 8.01256 33.4434C8.38273 33.6259 8.67886 33.8311 8.90665 34.0535C9.13444 34.2759 9.32237 34.561 9.47044 34.9089C9.6185 35.2567 9.69253 35.6501 9.69253 36.0835C9.69253 37.1612 9.29959 37.9709 8.5194 38.5126H8.50801ZM9.03763 23.9207C8.35995 24.4966 7.39752 24.7817 6.16744 24.7817H2.35762C2.23233 24.7817 2.16969 24.7247 2.16969 24.605V13.6283C2.16969 13.5142 2.23233 13.4515 2.35762 13.4515H6.18453C7.28932 13.4515 8.13785 13.7195 8.71303 14.2498C9.2939 14.7801 9.58433 15.51 9.58433 16.428C9.58433 16.9583 9.46474 17.4259 9.23125 17.8308C8.99207 18.2356 8.66177 18.5435 8.24036 18.7431C8.82123 18.9541 9.26542 19.3019 9.58433 19.7809C9.90324 20.2599 10.057 20.8358 10.057 21.4973C10.057 22.5351 9.71531 23.3391 9.03763 23.915V23.9207ZM14.516 39.1057C14.516 39.2197 14.4648 39.2824 14.3566 39.2938C13.975 39.3167 13.6903 39.3281 13.5024 39.3281C12.6709 39.3281 12.0046 39.0943 11.5035 38.6324C11.0023 38.1705 10.7518 37.4634 10.7518 36.5283V29.1496C10.7518 29.0242 10.8144 28.9615 10.9397 28.9615H11.7654C11.8623 28.9615 11.9192 29.0185 11.9363 29.1382L12.0502 31.0542H14.106C14.2199 31.0542 14.2826 31.1112 14.2826 31.2309V32.0235C14.2826 32.149 14.2256 32.2117 14.106 32.2117H12.0502V36.4713C12.0502 37.0016 12.1812 37.4064 12.4431 37.6972C12.7051 37.988 13.0809 38.1306 13.565 38.1306C13.6903 38.1306 13.9466 38.1192 14.3224 38.0964C14.4477 38.0964 14.5103 38.1534 14.5103 38.2732V39.1114L14.516 39.1057ZM21.253 38.6153C21.253 38.7236 21.2074 38.792 21.1106 38.8206C20.1824 39.157 19.163 39.3281 18.0582 39.3281C17.0787 39.3281 16.2643 39.1171 15.6208 38.6951C14.9773 38.2732 14.6527 37.6174 14.6527 36.7336C14.6527 35.9181 14.9602 35.2966 15.5696 34.8632C16.1789 34.4299 17.0104 34.2132 18.0525 34.2132C18.5992 34.2132 19.2313 34.2759 19.9489 34.4014V33.8939C19.9489 33.2381 19.8008 32.7534 19.5047 32.4341C19.2086 32.1205 18.7245 31.9608 18.0468 31.9608C17.204 31.9608 16.4523 32.1547 15.8031 32.5481C15.7063 32.6109 15.6265 32.5938 15.5639 32.5025L15.1026 31.8354C15.0514 31.7384 15.0514 31.6643 15.1026 31.613C15.9056 31.0656 16.9022 30.7919 18.0924 30.7919C19.0833 30.7919 19.8578 31.0542 20.4102 31.5788C20.9626 32.1034 21.2416 32.8618 21.2416 33.8654V38.6153H21.253ZM22.4375 24.2457C22.4375 24.3541 22.392 24.4225 22.2952 24.451C21.3669 24.7875 20.3475 24.9585 19.2427 24.9585C18.2632 24.9585 17.4489 24.7475 16.8054 24.3256C16.1618 23.9036 15.8372 23.2479 15.8372 22.364C15.8372 21.5486 16.1448 20.9271 16.7541 20.4937C17.3634 20.0603 18.1949 19.8436 19.237 19.8436C19.7837 19.8436 20.4159 19.9064 21.1334 20.0318V19.5243C21.1334 18.8686 20.9853 18.3839 20.6892 18.0646C20.3931 17.7509 19.909 17.5913 19.2313 17.5913C18.3885 17.5913 17.6368 17.7852 16.9876 18.1786C16.8908 18.2413 16.811 18.2242 16.7484 18.133L16.2871 17.4658C16.2359 17.3689 16.2359 17.2948 16.2871 17.2434C17.0901 16.696 18.0867 16.4223 19.2769 16.4223C20.2678 16.4223 21.0423 16.6846 21.5947 17.2092C22.1471 17.7338 22.4261 18.4922 22.4261 19.4958V24.2457H22.4375ZM27.2952 31.8981C27.2952 32.0349 27.2326 32.0863 27.1073 32.0578C26.589 31.9836 26.1164 31.9494 25.6836 31.9494C25.0628 31.9494 24.4934 32.0521 23.9751 32.2687V38.9859C23.9751 39.1 23.9125 39.1627 23.7872 39.1627H22.8532C22.7393 39.1627 22.6767 39.1057 22.6767 38.9859V31.5902C22.6767 31.4875 22.7166 31.4191 22.802 31.3849C23.6164 30.9914 24.5161 30.7976 25.507 30.7976C25.9797 30.7976 26.5264 30.8375 27.1357 30.923C27.2383 30.9344 27.2952 31.0028 27.2952 31.1283V31.9038V31.8981ZM31.7428 39.1057C31.7428 39.2197 31.6916 39.2824 31.5834 39.2938C31.2018 39.3167 30.9171 39.3281 30.7292 39.3281C29.8977 39.3281 29.2314 39.0943 28.7303 38.6324C28.2291 38.1705 27.9786 37.4634 27.9786 36.5283V29.1496C27.9786 29.0242 28.0412 28.9615 28.1665 28.9615H28.9866C29.0834 28.9615 29.1403 29.0185 29.1631 29.1382L29.2713 31.0542H31.3271C31.441 31.0542 31.5037 31.1112 31.5037 31.2309V32.0235C31.5037 32.149 31.4467 32.2117 31.3271 32.2117H29.2713V36.4713C29.2713 37.0016 29.4023 37.4064 29.6642 37.6972C29.9262 37.988 30.3021 38.1306 30.7861 38.1306C30.9114 38.1306 31.1677 38.1192 31.5435 38.0964C31.6688 38.0964 31.7315 38.1534 31.7315 38.2732V39.1114L31.7428 39.1057ZM32.0618 24.6107C32.0618 24.7247 32.0048 24.7875 31.8852 24.7875H30.9513C30.826 24.7875 30.7633 24.7304 30.7633 24.6107V16.7873C30.7633 16.6618 30.826 16.5991 30.9513 16.5991H31.8852C31.9991 16.5991 32.0618 16.6618 32.0618 16.7873V24.6107ZM31.982 14.8542C31.834 15.0025 31.6517 15.0766 31.4296 15.0766C31.2075 15.0766 31.0196 15.0025 30.8658 14.8542C30.7121 14.706 30.6381 14.5235 30.6381 14.3011C30.6381 14.0787 30.7121 13.8963 30.8658 13.748C31.0196 13.5997 31.2075 13.5256 31.4296 13.5256C31.6517 13.5256 31.834 13.594 31.982 13.7423C32.1301 13.8906 32.2041 14.073 32.2041 14.3068C32.2041 14.5406 32.1301 14.7117 31.982 14.8599V14.8542ZM39.0208 38.4898C39.0208 38.6039 38.981 38.678 38.8955 38.7122C37.9787 39.1228 36.9821 39.3281 35.9058 39.3281C34.8294 39.3281 33.9638 39.0486 33.3431 38.4898C32.7224 37.931 32.4091 37.07 32.4091 35.9067V31.1568C32.4091 31.0314 32.4718 30.9686 32.5971 30.9686H33.531C33.6449 30.9686 33.7076 31.0314 33.7076 31.1568V35.8782C33.7076 37.4121 34.4422 38.1762 35.9058 38.1762C36.5493 38.1762 37.1586 38.0736 37.7281 37.874V31.1568C37.7281 31.0314 37.7907 30.9686 37.916 30.9686H38.85C38.9639 30.9686 39.0265 31.0314 39.0265 31.1568V38.4898H39.0208ZM47.2612 35.9695C47.2612 37.013 46.948 37.8341 46.3102 38.4328C45.6724 39.0315 44.8409 39.3281 43.7931 39.3281C43.0641 39.3281 42.4092 39.1627 41.8341 38.8377V41.991C41.8341 42.105 41.7714 42.162 41.6461 42.162H40.7122C40.5983 42.162 40.5356 42.105 40.5356 41.991V31.5674C40.5356 31.4647 40.5755 31.3906 40.6609 31.3621C41.6404 30.98 42.6655 30.7919 43.7304 30.7919C44.7954 30.7919 45.6781 31.077 46.3102 31.6415C46.9423 32.206 47.2612 33.067 47.2612 34.2303V35.9752V35.9695ZM53.5084 38.6723C52.9162 39.1114 52.1417 39.3281 51.1849 39.3281C50.0118 39.3281 48.9697 38.9916 48.0528 38.3131C47.9674 38.2617 47.9503 38.1762 48.0072 38.0622L48.4343 37.3323C48.497 37.2296 48.5824 37.2125 48.6849 37.2867C49.4765 37.8797 50.3193 38.1705 51.2134 38.1705C51.7601 38.1705 52.21 38.0622 52.5574 37.8398C52.9048 37.6174 53.0813 37.3095 53.0813 36.9046C53.0813 36.6309 52.9731 36.4028 52.7624 36.2147C52.5517 36.0322 52.3353 35.9067 52.1246 35.844C51.9082 35.7813 51.6064 35.7129 51.2134 35.6387C50.9059 35.576 50.6496 35.519 50.4446 35.462C50.2396 35.4106 49.9776 35.3137 49.653 35.1769C49.3284 35.04 49.0722 34.8917 48.8671 34.7264C48.6678 34.561 48.4913 34.3386 48.3432 34.0592C48.1952 33.7798 48.1211 33.4662 48.1211 33.1184C48.1211 32.36 48.423 31.7783 49.0323 31.3849C49.6416 30.9914 50.3763 30.7919 51.2419 30.7919C52.2043 30.7919 53.1212 31.0428 53.9925 31.5389C54.1064 31.5902 54.1292 31.67 54.0551 31.7783L53.628 32.4911C53.5768 32.6052 53.497 32.628 53.3888 32.5538C52.6599 32.1604 51.9253 31.9665 51.1735 31.9665C50.6269 31.9665 50.194 32.0692 49.8751 32.2744C49.5562 32.4797 49.4025 32.7648 49.4025 33.1241C49.4025 33.5118 49.5733 33.7969 49.915 33.9794C50.2567 34.1562 50.7692 34.3158 51.4583 34.4527C51.7943 34.5154 52.0619 34.5724 52.267 34.6294C52.472 34.6865 52.7225 34.772 53.0244 34.8974C53.3319 35.0229 53.5654 35.1655 53.7362 35.3194C53.9071 35.4734 54.0551 35.6786 54.1861 35.9467C54.3171 36.2147 54.3854 36.5112 54.3854 36.8476C54.3854 37.6288 54.0893 38.2389 53.497 38.678L53.5084 38.6723Z" fill="#081339"></path><path d="M15.9625 36.7335C15.9625 37.2011 16.1561 37.5547 16.5377 37.8056C16.9249 38.0565 17.4318 38.1762 18.0639 38.1762C18.696 38.1762 19.3282 38.0793 19.9603 37.8911V35.5133C19.2883 35.3878 18.6505 35.3251 18.0639 35.3251C16.663 35.3251 15.9625 35.7927 15.9625 36.7335Z" fill="#081339"></path><path d="M124.95 62C126.079 62 126.994 61.0886 126.994 59.9643C126.994 58.84 126.079 57.9286 124.95 57.9286C123.821 57.9286 122.905 58.84 122.905 59.9643C122.905 61.0886 123.821 62 124.95 62Z" fill="#081339"></path></g><defs><clipPath id="clip0_67_173"><rect width="127" height="62" fill="white"></rect></clipPath></defs></svg>